<svg width="69" height="25" viewBox="0 0 69 25" fill="none" xmlns="http://www.w3.org/2000/svg">
<g clip-path="url(#clip0_4_29)">
<path d="M7.77861 24.9749C5.74504 24.8952 4.08128 24.3462 2.78035 23.3264C2.53207 23.1316 1.94046 22.5476 1.74198 22.3012C1.21444 21.6467 0.855772 21.0097 0.616545 20.303C-0.119574 18.1274 0.259277 15.2727 1.70019 12.1396C2.93391 9.45728 4.8376 6.79696 8.15886 3.11245C8.64809 2.57028 10.105 0.98468 10.1144 0.98468C10.1179 0.98468 10.0385 1.12039 9.93858 1.28566C9.07501 2.71287 8.3361 4.39398 7.93356 5.84938C7.28693 8.18467 7.36493 10.1888 8.16199 11.7428C8.71182 12.8133 9.65444 13.7407 10.7144 14.2533C12.57 15.1503 15.2868 15.2246 18.6046 14.4704C18.833 14.4182 30.152 11.4535 43.7581 7.88198C57.3643 4.31016 68.4984 1.3901 68.5001 1.3925C68.504 1.3956 36.8893 14.7435 20.4776 21.6683C17.8785 22.7647 17.1835 23.0416 15.9616 23.4649C12.8382 24.5472 10.0403 25.0636 7.77861 24.9749Z" fill="white"/>
</g>
<defs>
<clipPath id="clip0_4_29">
<rect width="68.25" height="24" fill="white" transform="translate(0.250122 0.98468)"/>
</clipPath>
</defs>
</svg>
