<svg width="79" height="66" viewBox="0 0 79 66" fill="none" xmlns="http://www.w3.org/2000/svg">
<path d="M32.6733 9.06156V8.93024C32.6733 8.31738 32.8702 7.77018 33.2642 7.28865C33.6582 6.80711 34.1616 6.56635 34.7745 6.56635C35.3874 6.56635 35.9345 6.76334 36.4161 7.15732C36.8976 7.5513 37.1603 8.07661 37.204 8.73325C37.2478 9.38988 37.0508 9.93708 36.6131 10.3748C36.1753 10.8126 35.65 11.0315 35.0371 11.0315L34.6432 11.1628L34.7745 11.3598L34.6432 12.0821L34.3805 14.1833C34.4681 14.2709 34.5118 14.3584 34.5118 14.446L34.2492 15.7593C34.1616 15.9344 34.0741 16.0657 33.9865 16.1532L33.8552 16.6785C33.6801 17.379 33.5269 17.948 33.3956 18.3858C33.2642 18.8236 33.1548 19.1738 33.0672 19.4364V19.6991C32.9797 20.1368 32.914 20.487 32.8702 20.7497C32.8265 21.0124 32.6733 21.4501 32.4106 22.063C32.2355 22.4132 32.2355 22.9823 32.4106 23.7702L32.5419 23.9016C32.5419 24.1642 32.6514 24.4706 32.8702 24.8208C33.0891 25.171 33.1986 25.4775 33.1986 25.7401C33.2861 27.4912 33.1548 28.9795 32.8046 30.2053L33.0672 30.9932C34.1179 31.5185 34.4243 32.0876 33.9865 32.7005L34.6432 32.9631C35.6938 33.4884 36.438 33.9481 36.8757 34.3421C37.3135 34.7361 37.7512 35.1519 38.189 35.5897C38.5392 35.6772 38.8019 35.8086 38.977 35.9837L39.3709 36.115C41.2095 37.3407 43.0481 38.8291 44.8867 40.5801L45.412 40.9741V41.1054L45.2807 41.3681L45.6747 41.6307H45.806C46.0686 41.8058 46.2437 41.8934 46.3313 41.8934H46.4626C46.5502 41.8934 46.6377 41.8496 46.7253 41.7621L46.9879 41.6307C47.163 41.4556 47.3381 41.3243 47.5132 41.2368H48.0386C48.1261 41.2368 48.1261 41.2805 48.0386 41.3681L47.5132 41.6307L46.8566 42.4187H47.7759L48.6952 42.55C48.9578 42.4625 49.1767 42.3749 49.3518 42.2874L50.0085 41.8934C50.2711 41.8058 50.5338 41.8934 50.7964 42.1561H50.9278C51.0153 42.2436 50.9715 42.3749 50.7964 42.55L49.2205 43.9946C48.7827 44.3448 48.3888 44.5637 48.0386 44.6513L46.3313 45.8332C46.2437 45.9208 46.1562 45.9208 46.0686 45.8332L45.6747 45.3079L45.412 44.7826L45.0837 44.323L44.6897 43.7976L44.3614 43.4037L44.0987 43.0753L43.5734 42.6814C43.3983 42.6814 43.2232 42.6376 43.0481 42.55L41.3409 41.2368C41.0782 41.2368 40.7718 41.1054 40.4216 40.8428C39.1083 39.7046 38.2328 39.0042 37.795 38.7415L37.0071 38.2162L35.4311 37.9536C34.9058 37.866 34.2054 37.6034 33.3299 37.1656L32.2793 36.6403C31.5789 36.2901 31.0973 36.115 30.8347 36.115L30.3094 35.8523C29.9592 35.7648 29.6965 35.6772 29.5214 35.5897L29.2587 35.327C29.0836 35.327 28.9085 35.3708 28.7334 35.4584L26.1069 36.7716L22.8237 38.2162C21.9482 38.9166 21.1164 39.4857 20.3285 39.9235L18.8839 40.5801L16.6513 42.1561C16.4762 42.3312 16.3011 42.3312 16.126 42.1561L15.8634 42.4187C15.6007 42.5063 15.4256 42.55 15.338 42.55L14.8127 42.8127V43.0753H14.5501L14.2874 43.4693C14.1123 43.8195 13.9372 44.0165 13.7621 44.0603C13.587 44.1041 13.4776 44.1697 13.4338 44.2573C13.39 44.3448 13.3462 44.4105 13.3025 44.4543L13.0398 44.7169L12.6458 44.9796L12.0549 44.9139L11.2669 45.0453L10.7416 45.1766C10.3038 45.2641 9.95362 45.1985 9.69097 44.9796C9.42831 44.7607 9.20943 44.4324 9.03433 43.9946C8.85923 43.732 8.94678 43.5131 9.29698 43.338L9.42831 43.2067C9.51586 43.1191 9.64719 43.0753 9.82229 43.0753H10.6103L11.6609 42.6814L12.1862 42.55C12.1862 42.3749 12.23 42.2436 12.3175 42.1561C12.4051 42.0685 12.5364 42.0247 12.7115 42.0247V41.8934C12.6239 41.7183 12.5802 41.5432 12.5802 41.3681C12.4926 41.193 12.4707 41.0617 12.5145 40.9741C12.5583 40.8866 12.6021 40.8428 12.6458 40.8428H12.7115L12.8428 41.2368C12.9304 41.6745 13.0617 41.8058 13.2368 41.6307L13.3681 41.3681C13.4557 41.193 13.587 41.1054 13.7621 41.1054L14.0248 41.3681L14.2874 41.1054L14.1561 40.9741C14.1561 40.8866 14.1999 40.8428 14.2874 40.8428L14.8127 40.3175C15.2505 39.7922 15.7758 39.3106 16.3887 38.8729C17.6144 37.9098 18.9277 37.1656 20.3285 36.6403C20.7662 36.2025 21.2478 35.9837 21.7731 35.9837C22.1233 35.3708 22.6486 34.7142 23.349 34.0138C23.9619 33.576 24.3996 33.2696 24.6623 33.0945C24.8374 32.7443 25.0563 32.5692 25.3189 32.5692H25.4502L25.7129 32.3065C25.888 32.219 26.0193 32.1314 26.1069 32.0438V31.3872C26.1069 30.9495 26.1507 30.5992 26.2382 30.3366C26.3258 30.0739 26.5446 29.9426 26.8948 29.9426L27.4202 29.4173C27.2451 29.0671 27.1575 28.6731 27.1575 28.2354H27.0262C26.8511 27.9727 26.7635 27.71 26.7635 27.4474C26.5009 27.0096 26.3258 26.6594 26.2382 26.3968H25.8442C25.7567 26.6594 25.5378 26.8345 25.1876 26.9221L25.0563 27.1847C24.7061 27.7976 24.3996 28.2572 24.137 28.5637C23.8743 28.8701 23.3928 29.2422 22.6924 29.68C22.2546 30.1177 21.9482 30.5992 21.7731 31.1246C21.6855 31.3872 21.6855 31.6499 21.7731 31.9125L21.6418 32.1752H21.7731C21.7731 32.3503 21.8169 32.4378 21.9044 32.4378H22.0357C22.2108 32.5254 22.2984 32.6348 22.2984 32.7661C22.2984 32.8975 22.1671 32.9413 21.9044 32.8975C21.6418 32.8537 21.4448 32.7661 21.3134 32.6348C21.1821 32.5035 21.0727 32.4378 20.9851 32.4378L20.5911 32.8318C20.416 33.0945 20.2409 33.2039 20.0658 33.1601C19.8907 33.1164 19.8469 33.0507 19.9345 32.9631L20.0658 32.8318C20.1534 32.6567 20.1534 32.5692 20.0658 32.5692L19.0152 32.8318C18.9277 32.9194 18.8182 32.9194 18.6869 32.8318C18.5556 32.7443 18.5774 32.6567 18.7526 32.5692L19.4092 32.3065C19.4092 32.219 19.3654 32.1752 19.2779 32.1752C18.9277 32.3503 18.5774 32.3941 18.2272 32.3065L17.5706 32.1752L17.4393 32.0438C17.4393 31.9563 17.4831 31.9125 17.5706 31.9125C17.9208 32.0001 18.3586 31.9563 18.8839 31.7812L19.8032 31.3872L20.8538 30.2053L20.9851 29.9426C21.3353 29.2422 21.7074 28.6074 22.1014 28.0384C22.4954 27.4693 22.9113 27.0096 23.349 26.6594L23.4803 26.1341C23.6554 25.7839 23.8305 25.4775 24.0056 25.2148C24.1807 24.9522 24.3996 24.602 24.6623 24.1642L25.0563 23.6389C25.4065 23.1136 25.8005 22.8509 26.2382 22.8509L26.6322 22.457C26.7197 22.3694 26.7635 22.2381 26.7635 22.063L27.0262 21.8003L26.8948 21.669C26.3695 21.2312 26.1069 20.8372 26.1069 20.487C26.0193 19.8742 26.2163 19.3489 26.6979 18.9111C27.1794 18.4734 27.6609 18.2764 28.1425 18.3201C28.624 18.3639 28.9961 18.5171 29.2587 18.7798L29.5214 19.0424C29.6089 19.0424 29.6527 19.0862 29.6527 19.1738L30.178 19.4364V19.8304C30.3531 20.0055 30.4407 20.1368 30.4407 20.2244C30.6158 19.9617 30.8784 19.6553 31.2287 19.3051L31.8853 17.2039C31.8853 16.8537 31.9728 16.5034 32.1479 16.1532L32.4106 15.7593V15.4966L32.8046 13.9207H33.0672L33.4612 12.3447C33.5488 12.0821 33.5488 11.7757 33.4612 11.4255L32.9359 10.1122L32.6733 9.06156Z" fill="white"/>
<path d="M13.3577 55.2692H6.21835V58.4944H9.54612V60.3855C9.54612 61.4703 9.15031 62.4525 7.20055 62.4525C5.2508 62.4525 4.85499 61.485 4.85499 60.3855H1.04344C1.04344 63.9625 2.97853 65.6777 7.20055 65.6777C11.4079 65.6777 13.3577 63.9478 13.3577 60.3855V55.2692ZM20.2461 65.6777C24.7466 65.6777 26.6964 63.9478 26.6964 60.3855C26.6964 56.8378 24.7466 55.1226 20.2461 55.1226C15.7308 55.1226 13.7957 56.8231 13.7957 60.3855C13.7957 63.9625 15.7308 65.6777 20.2461 65.6777ZM20.2461 62.4525C18.0031 62.4525 17.6073 61.485 17.6073 60.3855C17.6073 59.3007 17.9884 58.3478 20.2461 58.3478C22.5037 58.3478 22.8848 59.3153 22.8848 60.3855C22.8848 61.4703 22.489 62.4525 20.2461 62.4525ZM39.1336 59.198C39.1336 56.9111 37.5357 55.2692 35.2048 55.2692H27.1419V65.5311H30.9534V63.1269H33.1964L34.6184 65.5311H39.1336L37.3158 62.5844C38.4446 61.9248 39.1336 60.6933 39.1336 59.198ZM30.9534 58.4944H34.4718C34.8529 58.4944 35.322 58.4944 35.322 59.198C35.322 59.9017 34.8529 59.9017 34.4718 59.9017H30.9534V58.4944ZM47.1914 55.2692H39.5684V65.5311H47.1914C49.6689 65.5311 51.9999 63.8892 51.9999 60.4001C51.9999 56.9111 49.6689 55.2692 47.1914 55.2692ZM46.0187 62.3059H43.3799V58.4944H46.0187C46.8396 58.4944 48.1883 58.4944 48.1883 60.4001C48.1883 62.3059 46.8396 62.3059 46.0187 62.3059ZM60.9436 65.5311H65.1363L60.885 55.2692H55.2263L50.9749 65.5311H55.1676L55.8713 63.6839H60.2399L60.9436 65.5311ZM56.8682 61.0452L58.0556 57.908L59.2431 61.0452H56.8682ZM74.8493 55.2692V61.3237L70.4221 55.2692H65.4377V65.5311H69.2493V59.4766L73.6765 65.5311H78.6609V55.2692H74.8493Z" fill="white"/>
</svg>
